<svg id="visual" viewBox="0 0 900 600" width="900" height="600" xmlns="http://www.w3.org/2000/svg" xmlns:xlink="http://www.w3.org/1999/xlink" version="1.1"><path d="M0 454L16.7 456C33.3 458 66.7 462 100 460.8C133.3 459.7 166.7 453.3 200 454C233.3 454.7 266.7 462.3 300 466C333.3 469.7 366.7 469.3 400 466.5C433.3 463.7 466.7 458.3 500 458.3C533.3 458.3 566.7 463.7 600 463.8C633.3 464 666.7 459 700 457.2C733.3 455.3 766.7 456.7 800 457.2C833.3 457.7 866.7 457.3 883.3 457.2L900 457L900 601L883.3 601C866.7 601 833.3 601 800 601C766.7 601 733.3 601 700 601C666.7 601 633.3 601 600 601C566.7 601 533.3 601 500 601C466.7 601 433.3 601 400 601C366.7 601 333.3 601 300 601C266.7 601 233.3 601 200 601C166.7 601 133.3 601 100 601C66.7 601 33.3 601 16.7 601L0 601Z" fill="#ffffff"></path><path d="M0 474L16.7 473.7C33.3 473.3 66.7 472.7 100 472.2C133.3 471.7 166.7 471.3 200 473.2C233.3 475 266.7 479 300 477.8C333.3 476.7 366.7 470.3 400 467.3C433.3 464.3 466.7 464.7 500 465.8C533.3 467 566.7 469 600 469C633.3 469 666.7 467 700 467.3C733.3 467.7 766.7 470.3 800 470.7C833.3 471 866.7 469 883.3 468L900 467L900 601L883.3 601C866.7 601 833.3 601 800 601C766.7 601 733.3 601 700 601C666.7 601 633.3 601 600 601C566.7 601 533.3 601 500 601C466.7 601 433.3 601 400 601C366.7 601 333.3 601 300 601C266.7 601 233.3 601 200 601C166.7 601 133.3 601 100 601C66.7 601 33.3 601 16.7 601L0 601Z" fill="#f9f9f9"></path><path d="M0 486L16.7 486.7C33.3 487.3 66.7 488.7 100 488.5C133.3 488.3 166.7 486.7 200 487.5C233.3 488.3 266.7 491.7 300 491.3C333.3 491 366.7 487 400 486.3C433.3 485.7 466.7 488.3 500 490.3C533.3 492.3 566.7 493.7 600 494.3C633.3 495 666.7 495 700 494.2C733.3 493.3 766.7 491.7 800 490.3C833.3 489 866.7 488 883.3 487.5L900 487L900 601L883.3 601C866.7 601 833.3 601 800 601C766.7 601 733.3 601 700 601C666.7 601 633.3 601 600 601C566.7 601 533.3 601 500 601C466.7 601 433.3 601 400 601C366.7 601 333.3 601 300 601C266.7 601 233.3 601 200 601C166.7 601 133.3 601 100 601C66.7 601 33.3 601 16.7 601L0 601Z" fill="#f2f2f2"></path><path d="M0 511L16.7 508.5C33.3 506 66.7 501 100 499.5C133.3 498 166.7 500 200 501.5C233.3 503 266.7 504 300 505.7C333.3 507.3 366.7 509.7 400 509.5C433.3 509.3 466.7 506.7 500 505.7C533.3 504.7 566.7 505.3 600 505.2C633.3 505 666.7 504 700 505.3C733.3 506.7 766.7 510.3 800 511C833.3 511.7 866.7 509.3 883.3 508.2L900 507L900 601L883.3 601C866.7 601 833.3 601 800 601C766.7 601 733.3 601 700 601C666.7 601 633.3 601 600 601C566.7 601 533.3 601 500 601C466.7 601 433.3 601 400 601C366.7 601 333.3 601 300 601C266.7 601 233.3 601 200 601C166.7 601 133.3 601 100 601C66.7 601 33.3 601 16.7 601L0 601Z" fill="#ececec"></path><path d="M0 516L16.7 517.3C33.3 518.7 66.7 521.3 100 522.8C133.3 524.3 166.7 524.7 200 522.7C233.3 520.7 266.7 516.3 300 516C333.3 515.7 366.7 519.3 400 521.5C433.3 523.7 466.7 524.3 500 524.7C533.3 525 566.7 525 600 523.5C633.3 522 666.7 519 700 519.2C733.3 519.3 766.7 522.7 800 523C833.3 523.3 866.7 520.7 883.3 519.3L900 518L900 601L883.3 601C866.7 601 833.3 601 800 601C766.7 601 733.3 601 700 601C666.7 601 633.3 601 600 601C566.7 601 533.3 601 500 601C466.7 601 433.3 601 400 601C366.7 601 333.3 601 300 601C266.7 601 233.3 601 200 601C166.7 601 133.3 601 100 601C66.7 601 33.3 601 16.7 601L0 601Z" fill="#e6e6e6"></path><path d="M0 542L16.7 541.2C33.3 540.3 66.7 538.7 100 536.5C133.3 534.3 166.7 531.7 200 530.7C233.3 529.7 266.7 530.3 300 530.7C333.3 531 366.7 531 400 531.7C433.3 532.3 466.7 533.7 500 534.5C533.3 535.3 566.7 535.7 600 536.8C633.3 538 666.7 540 700 539C733.3 538 766.7 534 800 532.5C833.3 531 866.7 532 883.3 532.5L900 533L900 601L883.3 601C866.7 601 833.3 601 800 601C766.7 601 733.3 601 700 601C666.7 601 633.3 601 600 601C566.7 601 533.3 601 500 601C466.7 601 433.3 601 400 601C366.7 601 333.3 601 300 601C266.7 601 233.3 601 200 601C166.7 601 133.3 601 100 601C66.7 601 33.3 601 16.7 601L0 601Z" fill="#e0e0e0"></path><path d="M0 556L16.7 554.8C33.3 553.7 66.7 551.3 100 549.5C133.3 547.7 166.7 546.3 200 546.3C233.3 546.3 266.7 547.7 300 549.7C333.3 551.7 366.7 554.3 400 555C433.3 555.7 466.7 554.3 500 553.2C533.3 552 566.7 551 600 550.3C633.3 549.7 666.7 549.3 700 549.8C733.3 550.3 766.7 551.7 800 553C833.3 554.3 866.7 555.7 883.3 556.3L900 557L900 601L883.3 601C866.7 601 833.3 601 800 601C766.7 601 733.3 601 700 601C666.7 601 633.3 601 600 601C566.7 601 533.3 601 500 601C466.7 601 433.3 601 400 601C366.7 601 333.3 601 300 601C266.7 601 233.3 601 200 601C166.7 601 133.3 601 100 601C66.7 601 33.3 601 16.7 601L0 601Z" fill="#d9d9d9"></path><path d="M0 562L16.7 562.8C33.3 563.7 66.7 565.3 100 566.3C133.3 567.3 166.7 567.7 200 567.7C233.3 567.7 266.7 567.3 300 568C333.3 568.7 366.7 570.3 400 570.7C433.3 571 466.7 570 500 568C533.3 566 566.7 563 600 562C633.3 561 666.7 562 700 562.3C733.3 562.7 766.7 562.3 800 562.8C833.3 563.3 866.7 564.7 883.3 565.3L900 566L900 601L883.3 601C866.7 601 833.3 601 800 601C766.7 601 733.3 601 700 601C666.7 601 633.3 601 600 601C566.7 601 533.3 601 500 601C466.7 601 433.3 601 400 601C366.7 601 333.3 601 300 601C266.7 601 233.3 601 200 601C166.7 601 133.3 601 100 601C66.7 601 33.3 601 16.7 601L0 601Z" fill="#d3d3d3"></path><path d="M0 583L16.7 582.7C33.3 582.3 66.7 581.7 100 580.8C133.3 580 166.7 579 200 579C233.3 579 266.7 580 300 581.2C333.3 582.3 366.7 583.7 400 584.5C433.3 585.3 466.7 585.7 500 585.2C533.3 584.7 566.7 583.3 600 582.7C633.3 582 666.7 582 700 581.3C733.3 580.7 766.7 579.3 800 578.3C833.3 577.3 866.7 576.7 883.3 576.3L900 576L900 601L883.3 601C866.7 601 833.3 601 800 601C766.7 601 733.3 601 700 601C666.7 601 633.3 601 600 601C566.7 601 533.3 601 500 601C466.7 601 433.3 601 400 601C366.7 601 333.3 601 300 601C266.7 601 233.3 601 200 601C166.7 601 133.3 601 100 601C66.7 601 33.3 601 16.7 601L0 601Z" fill="#cdcdcd"></path></svg>