<svg id="visual" viewBox="0 0 900 600" width="900" height="600" xmlns="http://www.w3.org/2000/svg" xmlns:xlink="http://www.w3.org/1999/xlink" version="1.1"><path d="M0 255L16.7 248.2C33.3 241.3 66.7 227.7 100 221C133.3 214.3 166.7 214.7 200 219.7C233.3 224.7 266.7 234.3 300 232.5C333.3 230.7 366.7 217.3 400 214.2C433.3 211 466.7 218 500 219.3C533.3 220.7 566.7 216.3 600 217.3C633.3 218.3 666.7 224.7 700 225.8C733.3 227 766.7 223 800 219.5C833.3 216 866.7 213 883.3 211.5L900 210L900 601L883.3 601C866.7 601 833.3 601 800 601C766.7 601 733.3 601 700 601C666.7 601 633.3 601 600 601C566.7 601 533.3 601 500 601C466.7 601 433.3 601 400 601C366.7 601 333.3 601 300 601C266.7 601 233.3 601 200 601C166.7 601 133.3 601 100 601C66.7 601 33.3 601 16.7 601L0 601Z" fill="#ffffff"></path><path d="M0 252L16.7 258.2C33.3 264.3 66.7 276.7 100 276.5C133.3 276.3 166.7 263.7 200 257.7C233.3 251.7 266.7 252.3 300 251.3C333.3 250.3 366.7 247.7 400 246C433.3 244.3 466.7 243.7 500 245.3C533.3 247 566.7 251 600 257.7C633.3 264.3 666.7 273.7 700 275.7C733.3 277.7 766.7 272.3 800 272.7C833.3 273 866.7 279 883.3 282L900 285L900 601L883.3 601C866.7 601 833.3 601 800 601C766.7 601 733.3 601 700 601C666.7 601 633.3 601 600 601C566.7 601 533.3 601 500 601C466.7 601 433.3 601 400 601C366.7 601 333.3 601 300 601C266.7 601 233.3 601 200 601C166.7 601 133.3 601 100 601C66.7 601 33.3 601 16.7 601L0 601Z" fill="#f2f2f2"></path><path d="M0 306L16.7 304C33.3 302 66.7 298 100 296.2C133.3 294.3 166.7 294.7 200 294.3C233.3 294 266.7 293 300 292.7C333.3 292.3 366.7 292.7 400 293.8C433.3 295 466.7 297 500 302C533.3 307 566.7 315 600 315.8C633.3 316.7 666.7 310.3 700 307.7C733.3 305 766.7 306 800 304.5C833.3 303 866.7 299 883.3 297L900 295L900 601L883.3 601C866.7 601 833.3 601 800 601C766.7 601 733.3 601 700 601C666.7 601 633.3 601 600 601C566.7 601 533.3 601 500 601C466.7 601 433.3 601 400 601C366.7 601 333.3 601 300 601C266.7 601 233.3 601 200 601C166.7 601 133.3 601 100 601C66.7 601 33.3 601 16.7 601L0 601Z" fill="#e5e5e5"></path><path d="M0 337L16.7 336.5C33.3 336 66.7 335 100 336C133.3 337 166.7 340 200 345.3C233.3 350.7 266.7 358.3 300 362.3C333.3 366.3 366.7 366.7 400 365.8C433.3 365 466.7 363 500 360.2C533.3 357.3 566.7 353.7 600 350.3C633.3 347 666.7 344 700 340.7C733.3 337.3 766.7 333.7 800 336C833.3 338.3 866.7 346.7 883.3 350.8L900 355L900 601L883.3 601C866.7 601 833.3 601 800 601C766.7 601 733.3 601 700 601C666.7 601 633.3 601 600 601C566.7 601 533.3 601 500 601C466.7 601 433.3 601 400 601C366.7 601 333.3 601 300 601C266.7 601 233.3 601 200 601C166.7 601 133.3 601 100 601C66.7 601 33.3 601 16.7 601L0 601Z" fill="#d9d9d9"></path><path d="M0 388L16.7 389C33.3 390 66.7 392 100 394.7C133.3 397.3 166.7 400.7 200 401.2C233.3 401.7 266.7 399.3 300 394.3C333.3 389.3 366.7 381.7 400 378.2C433.3 374.7 466.7 375.3 500 374C533.3 372.7 566.7 369.3 600 375C633.3 380.7 666.7 395.3 700 400C733.3 404.7 766.7 399.3 800 397.2C833.3 395 866.7 396 883.3 396.5L900 397L900 601L883.3 601C866.7 601 833.3 601 800 601C766.7 601 733.3 601 700 601C666.7 601 633.3 601 600 601C566.7 601 533.3 601 500 601C466.7 601 433.3 601 400 601C366.7 601 333.3 601 300 601C266.7 601 233.3 601 200 601C166.7 601 133.3 601 100 601C66.7 601 33.3 601 16.7 601L0 601Z" fill="#cccccc"></path><path d="M0 433L16.7 432C33.3 431 66.7 429 100 425.3C133.3 421.7 166.7 416.3 200 415.2C233.3 414 266.7 417 300 418.5C333.3 420 366.7 420 400 420.8C433.3 421.7 466.7 423.3 500 425.5C533.3 427.7 566.7 430.3 600 432.3C633.3 434.3 666.7 435.7 700 431.7C733.3 427.7 766.7 418.3 800 414.3C833.3 410.3 866.7 411.7 883.3 412.3L900 413L900 601L883.3 601C866.7 601 833.3 601 800 601C766.7 601 733.3 601 700 601C666.7 601 633.3 601 600 601C566.7 601 533.3 601 500 601C466.7 601 433.3 601 400 601C366.7 601 333.3 601 300 601C266.7 601 233.3 601 200 601C166.7 601 133.3 601 100 601C66.7 601 33.3 601 16.7 601L0 601Z" fill="#c0c0c0"></path><path d="M0 463L16.7 464.5C33.3 466 66.7 469 100 471.8C133.3 474.7 166.7 477.3 200 477C233.3 476.7 266.7 473.3 300 474C333.3 474.7 366.7 479.3 400 479C433.3 478.7 466.7 473.3 500 472.2C533.3 471 566.7 474 600 471.7C633.3 469.3 666.7 461.7 700 463.2C733.3 464.7 766.7 475.3 800 475.2C833.3 475 866.7 464 883.3 458.5L900 453L900 601L883.3 601C866.7 601 833.3 601 800 601C766.7 601 733.3 601 700 601C666.7 601 633.3 601 600 601C566.7 601 533.3 601 500 601C466.7 601 433.3 601 400 601C366.7 601 333.3 601 300 601C266.7 601 233.3 601 200 601C166.7 601 133.3 601 100 601C66.7 601 33.3 601 16.7 601L0 601Z" fill="#b3b3b3"></path><path d="M0 513L16.7 514.2C33.3 515.3 66.7 517.7 100 516.7C133.3 515.7 166.7 511.3 200 509.2C233.3 507 266.7 507 300 506.3C333.3 505.7 366.7 504.3 400 506.8C433.3 509.3 466.7 515.7 500 519C533.3 522.3 566.7 522.7 600 518C633.3 513.3 666.7 503.7 700 498.8C733.3 494 766.7 494 800 494.3C833.3 494.7 866.7 495.3 883.3 495.7L900 496L900 601L883.3 601C866.7 601 833.3 601 800 601C766.7 601 733.3 601 700 601C666.7 601 633.3 601 600 601C566.7 601 533.3 601 500 601C466.7 601 433.3 601 400 601C366.7 601 333.3 601 300 601C266.7 601 233.3 601 200 601C166.7 601 133.3 601 100 601C66.7 601 33.3 601 16.7 601L0 601Z" fill="#a7a7a7"></path><path d="M0 544L16.7 546.2C33.3 548.3 66.7 552.7 100 552.8C133.3 553 166.7 549 200 546.8C233.3 544.7 266.7 544.3 300 543.2C333.3 542 366.7 540 400 539.5C433.3 539 466.7 540 500 541.7C533.3 543.3 566.7 545.7 600 547.2C633.3 548.7 666.7 549.3 700 549C733.3 548.7 766.7 547.3 800 546.2C833.3 545 866.7 544 883.3 543.5L900 543L900 601L883.3 601C866.7 601 833.3 601 800 601C766.7 601 733.3 601 700 601C666.7 601 633.3 601 600 601C566.7 601 533.3 601 500 601C466.7 601 433.3 601 400 601C366.7 601 333.3 601 300 601C266.7 601 233.3 601 200 601C166.7 601 133.3 601 100 601C66.7 601 33.3 601 16.7 601L0 601Z" fill="#9b9b9b"></path></svg>