<svg id="visual" viewBox="0 0 900 600" width="900" height="600" xmlns="http://www.w3.org/2000/svg" xmlns:xlink="http://www.w3.org/1999/xlink" version="1.1"><path d="M0 470L16.7 467.3C33.3 464.7 66.7 459.3 100 456.8C133.3 454.3 166.7 454.7 200 456.7C233.3 458.7 266.7 462.3 300 461.7C333.3 461 366.7 456 400 454.8C433.3 453.7 466.7 456.3 500 456.8C533.3 457.3 566.7 455.7 600 456C633.3 456.3 666.7 458.7 700 459.2C733.3 459.7 766.7 458.3 800 457C833.3 455.7 866.7 454.3 883.3 453.7L900 453L900 601L883.3 601C866.7 601 833.3 601 800 601C766.7 601 733.3 601 700 601C666.7 601 633.3 601 600 601C566.7 601 533.3 601 500 601C466.7 601 433.3 601 400 601C366.7 601 333.3 601 300 601C266.7 601 233.3 601 200 601C166.7 601 133.3 601 100 601C66.7 601 33.3 601 16.7 601L0 601Z" fill="#ffffff"></path><path d="M0 469L16.7 471.3C33.3 473.7 66.7 478.3 100 478.2C133.3 478 166.7 473 200 470.7C233.3 468.3 266.7 468.7 300 468.3C333.3 468 366.7 467 400 466.5C433.3 466 466.7 466 500 466.7C533.3 467.3 566.7 468.7 600 471C633.3 473.3 666.7 476.7 700 477.5C733.3 478.3 766.7 476.7 800 476.8C833.3 477 866.7 479 883.3 480L900 481L900 601L883.3 601C866.7 601 833.3 601 800 601C766.7 601 733.3 601 700 601C666.7 601 633.3 601 600 601C566.7 601 533.3 601 500 601C466.7 601 433.3 601 400 601C366.7 601 333.3 601 300 601C266.7 601 233.3 601 200 601C166.7 601 133.3 601 100 601C66.7 601 33.3 601 16.7 601L0 601Z" fill="#f2f2f2"></path><path d="M0 489L16.7 488.3C33.3 487.7 66.7 486.3 100 485.7C133.3 485 166.7 485 200 484.8C233.3 484.7 266.7 484.3 300 484.2C333.3 484 366.7 484 400 484.3C433.3 484.7 466.7 485.3 500 487.3C533.3 489.3 566.7 492.7 600 493.2C633.3 493.7 666.7 491.3 700 490.2C733.3 489 766.7 489 800 488.3C833.3 487.7 866.7 486.3 883.3 485.7L900 485L900 601L883.3 601C866.7 601 833.3 601 800 601C766.7 601 733.3 601 700 601C666.7 601 633.3 601 600 601C566.7 601 533.3 601 500 601C466.7 601 433.3 601 400 601C366.7 601 333.3 601 300 601C266.7 601 233.3 601 200 601C166.7 601 133.3 601 100 601C66.7 601 33.3 601 16.7 601L0 601Z" fill="#e5e5e5"></path><path d="M0 501L16.7 500.8C33.3 500.7 66.7 500.3 100 500.7C133.3 501 166.7 502 200 504C233.3 506 266.7 509 300 510.5C333.3 512 366.7 512 400 511.7C433.3 511.3 466.7 510.7 500 509.7C533.3 508.7 566.7 507.3 600 506C633.3 504.7 666.7 503.3 700 502C733.3 500.7 766.7 499.3 800 500.2C833.3 501 866.7 504 883.3 505.5L900 507L900 601L883.3 601C866.7 601 833.3 601 800 601C766.7 601 733.3 601 700 601C666.7 601 633.3 601 600 601C566.7 601 533.3 601 500 601C466.7 601 433.3 601 400 601C366.7 601 333.3 601 300 601C266.7 601 233.3 601 200 601C166.7 601 133.3 601 100 601C66.7 601 33.3 601 16.7 601L0 601Z" fill="#d9d9d9"></path><path d="M0 520L16.7 520.3C33.3 520.7 66.7 521.3 100 522.3C133.3 523.3 166.7 524.7 200 524.8C233.3 525 266.7 524 300 522.2C333.3 520.3 366.7 517.7 400 516.3C433.3 515 466.7 515 500 514.5C533.3 514 566.7 513 600 515.2C633.3 517.3 666.7 522.7 700 524.3C733.3 526 766.7 524 800 523.2C833.3 522.3 866.7 522.7 883.3 522.8L900 523L900 601L883.3 601C866.7 601 833.3 601 800 601C766.7 601 733.3 601 700 601C666.7 601 633.3 601 600 601C566.7 601 533.3 601 500 601C466.7 601 433.3 601 400 601C366.7 601 333.3 601 300 601C266.7 601 233.3 601 200 601C166.7 601 133.3 601 100 601C66.7 601 33.3 601 16.7 601L0 601Z" fill="#cccccc"></path><path d="M0 537L16.7 536.5C33.3 536 66.7 535 100 533.5C133.3 532 166.7 530 200 529.7C233.3 529.3 266.7 530.7 300 531.3C333.3 532 366.7 532 400 532.3C433.3 532.7 466.7 533.3 500 534.2C533.3 535 566.7 536 600 536.7C633.3 537.3 666.7 537.7 700 536.2C733.3 534.7 766.7 531.3 800 529.8C833.3 528.3 866.7 528.7 883.3 528.8L900 529L900 601L883.3 601C866.7 601 833.3 601 800 601C766.7 601 733.3 601 700 601C666.7 601 633.3 601 600 601C566.7 601 533.3 601 500 601C466.7 601 433.3 601 400 601C366.7 601 333.3 601 300 601C266.7 601 233.3 601 200 601C166.7 601 133.3 601 100 601C66.7 601 33.3 601 16.7 601L0 601Z" fill="#c0c0c0"></path><path d="M0 548L16.7 548.5C33.3 549 66.7 550 100 551C133.3 552 166.7 553 200 553C233.3 553 266.7 552 300 552.3C333.3 552.7 366.7 554.3 400 554.2C433.3 554 466.7 552 500 551.5C533.3 551 566.7 552 600 551.2C633.3 550.3 666.7 547.7 700 548.2C733.3 548.7 766.7 552.3 800 552.2C833.3 552 866.7 548 883.3 546L900 544L900 601L883.3 601C866.7 601 833.3 601 800 601C766.7 601 733.3 601 700 601C666.7 601 633.3 601 600 601C566.7 601 533.3 601 500 601C466.7 601 433.3 601 400 601C366.7 601 333.3 601 300 601C266.7 601 233.3 601 200 601C166.7 601 133.3 601 100 601C66.7 601 33.3 601 16.7 601L0 601Z" fill="#b3b3b3"></path><path d="M0 567L16.7 567.3C33.3 567.7 66.7 568.3 100 567.8C133.3 567.3 166.7 565.7 200 565C233.3 564.3 266.7 564.7 300 564.5C333.3 564.3 366.7 563.7 400 564.5C433.3 565.3 466.7 567.7 500 568.8C533.3 570 566.7 570 600 568.3C633.3 566.7 666.7 563.3 700 561.7C733.3 560 766.7 560 800 560.2C833.3 560.3 866.7 560.7 883.3 560.8L900 561L900 601L883.3 601C866.7 601 833.3 601 800 601C766.7 601 733.3 601 700 601C666.7 601 633.3 601 600 601C566.7 601 533.3 601 500 601C466.7 601 433.3 601 400 601C366.7 601 333.3 601 300 601C266.7 601 233.3 601 200 601C166.7 601 133.3 601 100 601C66.7 601 33.3 601 16.7 601L0 601Z" fill="#a7a7a7"></path><path d="M0 578L16.7 578.8C33.3 579.7 66.7 581.3 100 581.5C133.3 581.7 166.7 580.3 200 579.5C233.3 578.7 266.7 578.3 300 577.8C333.3 577.3 366.7 576.7 400 576.5C433.3 576.3 466.7 576.7 500 577.3C533.3 578 566.7 579 600 579.7C633.3 580.3 666.7 580.7 700 580.5C733.3 580.3 766.7 579.7 800 579.2C833.3 578.7 866.7 578.3 883.3 578.2L900 578L900 601L883.3 601C866.7 601 833.3 601 800 601C766.7 601 733.3 601 700 601C666.7 601 633.3 601 600 601C566.7 601 533.3 601 500 601C466.7 601 433.3 601 400 601C366.7 601 333.3 601 300 601C266.7 601 233.3 601 200 601C166.7 601 133.3 601 100 601C66.7 601 33.3 601 16.7 601L0 601Z" fill="#9b9b9b"></path></svg>