<svg id="visual" viewBox="0 0 900 600" width="900" height="600" xmlns="http://www.w3.org/2000/svg" xmlns:xlink="http://www.w3.org/1999/xlink" version="1.1"><rect x="0" y="0" width="900" height="600" fill="#ffffff"></rect><path d="M0 117L100 117L100 105L200 105L200 107L300 107L300 112L400 112L400 108L500 108L500 100L600 100L600 106L700 106L700 111L800 111L800 98L900 98L900 110L900 601L900 601L800 601L800 601L700 601L700 601L600 601L600 601L500 601L500 601L400 601L400 601L300 601L300 601L200 601L200 601L100 601L100 601L0 601Z" fill="#e1e1e1"></path><path d="M0 159L100 159L100 166L200 166L200 166L300 166L300 156L400 156L400 153L500 153L500 152L600 152L600 161L700 161L700 153L800 153L800 163L900 163L900 167L900 601L900 601L800 601L800 601L700 601L700 601L600 601L600 601L500 601L500 601L400 601L400 601L300 601L300 601L200 601L200 601L100 601L100 601L0 601Z" fill="#bbbbbb"></path><path d="M0 223L100 223L100 213L200 213L200 219L300 219L300 207L400 207L400 212L500 212L500 215L600 215L600 216L700 216L700 212L800 212L800 215L900 215L900 210L900 601L900 601L800 601L800 601L700 601L700 601L600 601L600 601L500 601L500 601L400 601L400 601L300 601L300 601L200 601L200 601L100 601L100 601L0 601Z" fill="#979797"></path><path d="M0 277L100 277L100 267L200 267L200 275L300 275L300 260L400 260L400 270L500 270L500 263L600 263L600 269L700 269L700 271L800 271L800 265L900 265L900 269L900 601L900 601L800 601L800 601L700 601L700 601L600 601L600 601L500 601L500 601L400 601L400 601L300 601L300 601L200 601L200 601L100 601L100 601L0 601Z" fill="#747474"></path><path d="M0 325L100 325L100 316L200 316L200 319L300 319L300 330L400 330L400 321L500 321L500 330L600 330L600 316L700 316L700 315L800 315L800 318L900 318L900 327L900 601L900 601L800 601L800 601L700 601L700 601L600 601L600 601L500 601L500 601L400 601L400 601L300 601L300 601L200 601L200 601L100 601L100 601L0 601Z" fill="#6d6d6d"></path><path d="M0 374L100 374L100 383L200 383L200 377L300 377L300 373L400 373L400 379L500 379L500 378L600 378L600 381L700 381L700 383L800 383L800 371L900 371L900 371L900 601L900 601L800 601L800 601L700 601L700 601L600 601L600 601L500 601L500 601L400 601L400 601L300 601L300 601L200 601L200 601L100 601L100 601L0 601Z" fill="#747474"></path><path d="M0 433L100 433L100 435L200 435L200 425L300 425L300 432L400 432L400 427L500 427L500 430L600 430L600 428L700 428L700 433L800 433L800 436L900 436L900 433L900 601L900 601L800 601L800 601L700 601L700 601L600 601L600 601L500 601L500 601L400 601L400 601L300 601L300 601L200 601L200 601L100 601L100 601L0 601Z" fill="#979797"></path><path d="M0 487L100 487L100 484L200 484L200 491L300 491L300 487L400 487L400 488L500 488L500 484L600 484L600 483L700 483L700 480L800 480L800 479L900 479L900 479L900 601L900 601L800 601L800 601L700 601L700 601L600 601L600 601L500 601L500 601L400 601L400 601L300 601L300 601L200 601L200 601L100 601L100 601L0 601Z" fill="#bbbbbb"></path><path d="M0 537L100 537L100 540L200 540L200 539L300 539L300 533L400 533L400 537L500 537L500 544L600 544L600 542L700 542L700 542L800 542L800 536L900 536L900 539L900 601L900 601L800 601L800 601L700 601L700 601L600 601L600 601L500 601L500 601L400 601L400 601L300 601L300 601L200 601L200 601L100 601L100 601L0 601Z" fill="#e1e1e1"></path></svg>