<svg id="visual" viewBox="0 0 900 120" width="900" height="120" xmlns="http://www.w3.org/2000/svg" xmlns:xlink="http://www.w3.org/1999/xlink" version="1.1"><path d="M0 37L180 37L180 31L360 31L360 37L540 37L540 37L720 37L720 31L900 31L900 31L900 0L900 0L720 0L720 0L540 0L540 0L360 0L360 0L180 0L180 0L0 0Z" fill="#ffffff"></path><path d="M0 61L180 61L180 61L360 61L360 67L540 67L540 67L720 67L720 55L900 55L900 61L900 29L900 29L720 29L720 35L540 35L540 35L360 35L360 29L180 29L180 35L0 35Z" fill="#dfdfdf"></path><path d="M0 97L180 97L180 85L360 85L360 97L540 97L540 97L720 97L720 85L900 85L900 97L900 59L900 53L720 53L720 65L540 65L540 65L360 65L360 59L180 59L180 59L0 59Z" fill="#c0c0c0"></path><path d="M0 223L180 223L180 229L360 229L360 199L540 199L540 229L720 229L720 211L900 211L900 211L900 95L900 83L720 83L720 95L540 95L540 95L360 95L360 83L180 83L180 95L0 95Z" fill="#a2a2a2"></path><path d="M0 307L180 307L180 325L360 325L360 319L540 319L540 319L720 319L720 313L900 313L900 325L900 209L900 209L720 209L720 227L540 227L540 197L360 197L360 227L180 227L180 221L0 221Z" fill="#848484"></path><path d="M0 385L180 385L180 391L360 391L360 403L540 403L540 403L720 403L720 391L900 391L900 385L900 323L900 311L720 311L720 317L540 317L540 317L360 317L360 323L180 323L180 305L0 305Z" fill="#797979"></path><path d="M0 415L180 415L180 427L360 427L360 433L540 433L540 433L720 433L720 427L900 427L900 427L900 383L900 389L720 389L720 401L540 401L540 401L360 401L360 389L180 389L180 383L0 383Z" fill="#797979"></path><path d="M0 439L180 439L180 451L360 451L360 463L540 463L540 463L720 463L720 451L900 451L900 451L900 425L900 425L720 425L720 431L540 431L540 431L360 431L360 425L180 425L180 413L0 413Z" fill="#848484"></path><path d="M0 499L180 499L180 505L360 505L360 511L540 511L540 511L720 511L720 511L900 511L900 505L900 449L900 449L720 449L720 461L540 461L540 461L360 461L360 449L180 449L180 437L0 437Z" fill="#a2a2a2"></path><path d="M0 553L180 553L180 553L360 553L360 559L540 559L540 553L720 553L720 559L900 559L900 553L900 503L900 509L720 509L720 509L540 509L540 509L360 509L360 503L180 503L180 497L0 497Z" fill="#c0c0c0"></path><path d="M0 577L180 577L180 577L360 577L360 583L540 583L540 577L720 577L720 583L900 583L900 577L900 551L900 557L720 557L720 551L540 551L540 557L360 557L360 551L180 551L180 551L0 551Z" fill="#dfdfdf"></path><path d="M0 601L180 601L180 601L360 601L360 601L540 601L540 601L720 601L720 601L900 601L900 601L900 575L900 581L720 581L720 575L540 575L540 581L360 581L360 575L180 575L180 575L0 575Z" fill="#ffffff"></path></svg>